<?xml version="1.0" encoding="UTF-8"?>
<!DOCTYPE svg PUBLIC "-//W3C//DTD SVG 1.1//EN" "http://www.w3.org/Graphics/SVG/1.1/DTD/svg11.dtd">
<svg xmlns="http://www.w3.org/2000/svg" version="1.1" width="960px" height="768px" style="shape-rendering:geometricPrecision; text-rendering:geometricPrecision; image-rendering:optimizeQuality; fill-rule:evenodd; clip-rule:evenodd" xmlns:xlink="http://www.w3.org/1999/xlink">
<g><path style="opacity:0.992" fill="#cecfd1" d="M 589.5,338.5 C 590.833,338.5 591.5,337.833 591.5,336.5C 593.527,336.662 595.527,336.495 597.5,336C 596.167,335.667 594.833,335.333 593.5,335C 604.5,334.333 615.5,334.333 626.5,335C 623.833,335.333 621.167,335.667 618.5,336C 625.833,336.667 633.167,336.667 640.5,336C 637.833,335.667 635.167,335.333 632.5,335C 638.833,334.333 645.167,334.333 651.5,335C 650.833,335.333 650.167,335.667 649.5,336C 653.968,336.074 656.968,338.241 658.5,342.5C 660.333,342.833 662.167,343.167 664,343.5C 671.204,342.201 680.037,340.201 690.5,337.5C 694.415,336.733 698.415,336.233 702.5,336C 699.833,335.667 697.167,335.333 694.5,335C 700.5,334.667 706.5,334.333 712.5,334C 711.167,333.667 709.833,333.333 708.5,333C 718.153,331.515 727.82,329.515 737.5,327C 742.252,326.227 746.919,326.393 751.5,327.5C 751.5,328.833 752.167,329.5 753.5,329.5C 754.474,330.635 755.641,331.635 757,332.5C 757.667,336.833 757.667,341.167 757,345.5C 756.333,346.833 755.667,346.833 755,345.5C 753.212,348.848 751.546,352.182 750,355.5C 749.667,354.833 749.333,354.167 749,353.5C 748.587,356.232 747.92,358.899 747,361.5C 746.667,361.167 746.333,360.833 746,360.5C 745.598,361.872 745.098,363.205 744.5,364.5C 738.793,366.16 733.96,364.826 730,360.5C 729.333,363.167 728.667,363.167 728,360.5C 727.461,363.529 726.794,366.529 726,369.5C 725.667,368.833 725.333,368.167 725,367.5C 724.598,368.872 724.098,370.205 723.5,371.5C 720.554,372.655 717.554,372.821 714.5,372C 715.167,371.667 715.833,371.333 716.5,371C 713.74,370.326 711.073,369.493 708.5,368.5C 708.587,371.598 708.087,371.932 707,369.5C 704.665,381.242 698.831,383.242 689.5,375.5C 688.066,377.22 687.233,379.22 687,381.5C 686.667,380.5 686.333,379.5 686,378.5C 686.263,385.239 683.097,388.072 676.5,387C 674.774,385.47 672.774,384.47 670.5,384C 671.167,383.667 671.833,383.333 672.5,383C 670.866,382.506 669.199,382.34 667.5,382.5C 667.322,385.216 666.822,387.883 666,390.5C 664.913,388.068 664.413,388.402 664.5,391.5C 663.094,391.973 662.427,392.973 662.5,394.5C 660.167,394.5 657.833,394.5 655.5,394.5C 655.821,396.048 656.821,396.715 658.5,396.5C 658.351,397.552 658.517,398.552 659,399.5C 659.333,399.167 659.667,398.833 660,398.5C 664.62,403.848 670.12,405.182 676.5,402.5C 680.445,401.509 684.445,401.176 688.5,401.5C 688.34,403.199 688.506,404.866 689,406.5C 689.333,405.5 689.667,404.5 690,403.5C 690.273,405.101 690.773,406.601 691.5,408C 693.91,407.634 696.41,407.134 699,406.5C 704.45,406.953 707.116,409.953 707,415.5C 707.5,415 708,414.5 708.5,414C 712.821,413.501 717.154,413.334 721.5,413.5C 721.34,415.199 721.506,416.866 722,418.5C 722.807,414.551 723.307,414.551 723.5,418.5C 727.884,418.174 732.217,418.508 736.5,419.5C 738.437,421.04 739.604,423.04 740,425.5C 741.131,424.396 741.965,424.729 742.5,426.5C 745.441,427.522 748.441,428.355 751.5,429C 750.5,429.333 749.5,429.667 748.5,430C 751.167,430.333 753.833,430.667 756.5,431C 755.833,431.333 755.167,431.667 754.5,432C 755.833,432.333 757.167,432.667 758.5,433C 758.167,433.333 757.833,433.667 757.5,434C 759.993,435.325 761.16,437.491 761,440.5C 761.333,439.167 761.667,437.833 762,436.5C 762.667,439.833 762.667,443.167 762,446.5C 761.667,445.5 761.333,444.5 761,443.5C 760.505,445.473 760.338,447.473 760.5,449.5C 757.4,451.554 754.066,453.388 750.5,455C 751.167,455.333 751.833,455.667 752.5,456C 749.5,456.333 746.5,456.667 743.5,457C 743.833,457.333 744.167,457.667 744.5,458C 738.581,459.196 732.581,459.862 726.5,460C 727.167,460.333 727.833,460.667 728.5,461C 706.833,461.667 685.167,461.667 663.5,461C 664.833,460.667 666.167,460.333 667.5,460C 653.479,459.733 639.479,459.066 625.5,458C 628.5,457.667 631.5,457.333 634.5,457C 625.167,456.667 615.833,456.333 606.5,456C 609.833,455.667 613.167,455.333 616.5,455C 609.833,454.667 603.167,454.333 596.5,454C 602.622,453.272 602.789,452.772 597,452.5C 595.5,452.667 594,452.833 592.5,453C 592.833,453.333 593.167,453.667 593.5,454C 591.833,454.333 590.167,454.667 588.5,455C 588.833,455.333 589.167,455.667 589.5,456C 582.797,458.281 576.131,460.948 569.5,464C 564.267,465.513 558.933,466.513 553.5,467C 555.5,467.333 557.5,467.667 559.5,468C 554.167,468.333 548.833,468.667 543.5,469C 544.833,469.333 546.167,469.667 547.5,470C 541.551,471.073 535.551,471.74 529.5,472C 530.167,472.333 530.833,472.667 531.5,473C 515.624,473.038 500.624,474.205 486.5,476.5C 482.629,476.746 478.629,476.413 474.5,475.5C 472.381,475.598 470.714,476.431 469.5,478C 473.5,478.333 477.5,478.667 481.5,479C 480.167,479.333 478.833,479.667 477.5,480C 483.147,480.712 488.147,482.878 492.5,486.5C 493.098,487.795 493.598,489.128 494,490.5C 494.667,489.167 495.333,489.167 496,490.5C 496.499,496.157 496.666,501.824 496.5,507.5C 491.095,510.322 485.762,510.155 480.5,507C 480.07,506.08 479.736,505.247 479.5,504.5C 478.679,507.447 478.179,510.447 478,513.5C 475.775,519.075 471.608,521.075 465.5,519.5C 465.5,518.5 465.5,517.5 465.5,516.5C 463.5,515.833 461.5,515.167 459.5,514.5C 459.664,517.187 459.497,519.854 459,522.5C 458.667,519.5 458.333,516.5 458,513.5C 457.8,517.753 457.3,521.92 456.5,526C 450.517,527.554 445.683,526.054 442,521.5C 441.333,525.5 440.667,525.5 440,521.5C 439.667,523.833 439.333,526.167 439,528.5C 437.325,529.595 436.158,531.095 435.5,533C 432.446,533.821 429.446,533.655 426.5,532.5C 424.57,529.618 422.737,527.284 421,525.5C 420.667,522.5 420.333,519.5 420,516.5C 419.667,518.5 419.333,520.5 419,522.5C 418.441,518.814 417.774,515.147 417,511.5C 416.667,511.833 416.333,512.167 416,512.5C 413.818,507.816 410.485,504.149 406,501.5C 405.667,500.167 405.333,498.833 405,497.5C 404.667,498.167 404.333,498.833 404,499.5C 403.138,497.913 402.471,496.246 402,494.5C 401.667,494.833 401.333,495.167 401,495.5C 399.443,488.247 399.11,480.914 400,473.5C 401.812,472.361 402.978,470.195 403.5,467C 401.481,467.152 399.481,467.652 397.5,468.5C 397.5,469.5 397.5,470.5 397.5,471.5C 394.978,473.785 391.978,475.619 388.5,477C 388.833,477.333 389.167,477.667 389.5,478C 385.5,478.333 381.5,478.667 377.5,479C 380.5,479.333 383.5,479.667 386.5,480C 364.833,480.667 343.167,480.667 321.5,480C 328.833,479.667 336.167,479.333 343.5,479C 333.167,478.667 322.833,478.333 312.5,478C 313.833,477.667 315.167,477.333 316.5,477C 313.776,476.73 311.109,476.23 308.5,475.5C 304.397,467.93 298.063,464.097 289.5,464C 288.87,460.871 288.204,457.704 287.5,454.5C 286.553,459.376 284.886,463.209 282.5,466C 287.5,466.333 292.5,466.667 297.5,467C 293.774,468.043 294.107,468.543 298.5,468.5C 298.81,470.144 299.81,471.144 301.5,471.5C 302.376,471.369 303.043,471.702 303.5,472.5C 304.189,474.444 304.689,476.444 305,478.5C 305.667,474.5 306.333,474.5 307,478.5C 307.747,485.882 307.414,493.215 306,500.5C 305.667,499.167 305.333,497.833 305,496.5C 304.503,499.146 304.336,501.813 304.5,504.5C 297.282,504.895 290.949,504.228 285.5,502.5C 284.833,506.5 284.167,510.5 283.5,514.5C 277.376,515.19 271.709,514.023 266.5,511C 267.696,510.346 267.696,509.846 266.5,509.5C 265.686,511.766 265.186,514.1 265,516.5C 264.333,517.833 263.667,517.833 263,516.5C 262.517,517.448 262.351,518.448 262.5,519.5C 259.776,519.534 257.776,520.201 256.5,521.5C 253.828,520.497 251.162,519.497 248.5,518.5C 247.64,516.069 245.973,514.736 243.5,514.5C 242.178,511.976 241.012,509.31 240,506.5C 239.667,506.833 239.333,507.167 239,507.5C 238.08,504.899 237.413,502.232 237,499.5C 236.086,503.185 235.419,502.852 235,498.5C 234.169,488.455 234.502,478.455 236,468.5C 236.333,469.833 236.667,471.167 237,472.5C 237.481,468.469 238.147,464.469 239,460.5C 239.333,461.5 239.667,462.5 240,463.5C 240.667,461.167 240.667,458.833 240,456.5C 239.667,456.833 239.333,457.167 239,457.5C 237.956,456.377 237.29,455.044 237,453.5C 236.667,453.833 236.333,454.167 236,454.5C 233.702,451.935 232.035,448.602 231,444.5C 230.667,444.833 230.333,445.167 230,445.5C 229.027,443.608 228.36,441.608 228,439.5C 227.667,439.833 227.333,440.167 227,440.5C 226.012,437.576 225.346,434.576 225,431.5C 224.667,432.5 224.333,433.5 224,434.5C 223.055,430.886 222.388,427.219 222,423.5C 221.667,424.5 221.333,425.5 221,426.5C 219.948,420.883 219.282,415.216 219,409.5C 218.667,412.167 218.333,414.833 218,417.5C 216.02,398.168 216.02,378.835 218,359.5C 218.333,362.5 218.667,365.5 219,368.5C 219.391,362.137 220.058,355.803 221,349.5C 221.333,350.833 221.667,352.167 222,353.5C 222.421,349.128 223.088,344.795 224,340.5C 224.333,341.833 224.667,343.167 225,344.5C 225.297,341.086 225.964,337.753 227,334.5C 227.333,335.167 227.667,335.833 228,336.5C 228.413,333.768 229.08,331.101 230,328.5C 230.333,329.167 230.667,329.833 231,330.5C 231.29,328.048 231.956,325.715 233,323.5C 233.333,323.833 233.667,324.167 234,324.5C 234.36,322.392 235.027,320.392 236,318.5C 236.333,318.833 236.667,319.167 237,319.5C 237.36,317.392 238.027,315.392 239,313.5C 239.333,314.167 239.667,314.833 240,315.5C 240.333,313.833 240.667,312.167 241,310.5C 241.667,309.167 242.333,309.167 243,310.5C 243.749,306.397 246.249,304.73 250.5,305.5C 251.833,305.5 253.167,305.5 254.5,305.5C 255.167,305.5 255.5,305.167 255.5,304.5C 255.5,304.167 255.5,303.833 255.5,303.5C 256.222,303.082 256.722,302.416 257,301.5C 257.333,301.833 257.667,302.167 258,302.5C 258.511,300.122 259.178,297.788 260,295.5C 260.333,296.167 260.667,296.833 261,297.5C 261.29,295.048 261.956,292.715 263,290.5C 263.333,290.833 263.667,291.167 264,291.5C 264.333,289.833 264.667,288.167 265,286.5C 265.667,285.167 266.333,285.167 267,286.5C 267.483,285.552 267.649,284.552 267.5,283.5C 273.145,282.408 278.645,281.075 284,279.5C 284.333,279.833 284.667,280.167 285,280.5C 285.333,279.167 285.667,277.833 286,276.5C 286.667,275.167 287.333,275.167 288,276.5C 289.345,269.821 293.345,265.821 300,264.5C 303.41,265.952 306.91,266.785 310.5,267C 313.723,262.877 317.723,258.877 322.5,255C 325.167,254.333 327.833,254.333 330.5,255C 331.957,256.697 333.623,258.197 335.5,259.5C 338.401,256.434 341.734,253.934 345.5,252C 344.833,251.667 344.167,251.333 343.5,251C 345.167,250.667 346.833,250.333 348.5,250C 347.366,248.984 347.699,248.317 349.5,248C 352.167,247.333 354.833,247.333 357.5,248C 358.308,249.706 359.641,250.539 361.5,250.5C 361.238,251.978 361.571,253.311 362.5,254.5C 363.696,254.154 363.696,253.654 362.5,253C 363.833,252.667 365.167,252.333 366.5,252C 366.167,251.667 365.833,251.333 365.5,251C 369.643,249.085 373.309,246.418 376.5,243C 380.167,242.333 383.833,242.333 387.5,243C 388.227,244.399 388.727,245.899 389,247.5C 389.333,247.167 389.667,246.833 390,246.5C 392.315,248.83 394.815,248.83 397.5,246.5C 402.571,239.681 409.237,237.348 417.5,239.5C 418.366,242.234 420.033,244.234 422.5,245.5C 426.824,241.845 431.157,238.178 435.5,234.5C 441.299,232.622 446.133,233.955 450,238.5C 453.822,234.977 457.322,231.81 460.5,229C 464.486,228.501 468.486,228.334 472.5,228.5C 472.5,229.5 472.5,230.5 472.5,231.5C 475.368,231.915 477.535,230.915 479,228.5C 479.333,228.833 479.667,229.167 480,229.5C 480.333,228.5 480.667,227.5 481,226.5C 481.667,225.167 482.333,225.167 483,226.5C 483.483,225.552 483.649,224.552 483.5,223.5C 488.328,221.698 493.328,221.198 498.5,222C 500.155,224.91 502.155,225.077 504.5,222.5C 506.282,217.144 509.948,215.144 515.5,216.5C 518.489,216.662 521.322,217.329 524,218.5C 525.371,217.419 526.871,216.585 528.5,216C 528.167,215.667 527.833,215.333 527.5,215C 530.381,213.747 532.215,211.58 533,208.5C 533.333,208.833 533.667,209.167 534,209.5C 534.005,206.771 535.171,204.771 537.5,203.5C 540.768,202.513 544.102,202.18 547.5,202.5C 549.33,207.663 549.83,212.996 549,218.5C 548.667,216.5 548.333,214.5 548,212.5C 547.625,217.21 546.958,221.877 546,226.5C 545.667,225.5 545.333,224.5 545,223.5C 544.587,226.232 543.92,228.899 543,231.5C 542.667,231.167 542.333,230.833 542,230.5C 541.529,232.246 540.862,233.913 540,235.5C 539.667,234.833 539.333,234.167 539,233.5C 538.506,235.134 538.34,236.801 538.5,238.5C 534.441,240.721 531.108,243.887 528.5,248C 523.281,252.344 517.614,255.844 511.5,258.5C 509.307,261.508 506.307,263.008 502.5,263C 503.167,263.333 503.833,263.667 504.5,264C 501.997,264.129 499.997,265.129 498.5,267C 491.063,268.917 484.063,271.584 477.5,275C 478.5,275.333 479.5,275.667 480.5,276C 477.028,275.943 474.028,276.943 471.5,279C 465.378,280.819 459.378,282.819 453.5,285C 453.833,285.333 454.167,285.667 454.5,286C 451.5,286.333 448.5,286.667 445.5,287C 446.833,287.333 448.167,287.667 449.5,288C 445.833,288.333 442.167,288.667 438.5,289C 439.833,289.667 439.833,290.333 438.5,291C 429.545,292.544 420.879,294.544 412.5,297C 413.5,297.333 414.5,297.667 415.5,298C 411.167,298.333 406.833,298.667 402.5,299C 404.5,299.333 406.5,299.667 408.5,300C 403.833,300.333 399.167,300.667 394.5,301C 395.634,302.016 395.301,302.683 393.5,303C 390.5,303.333 387.5,303.667 384.5,304C 384.833,304.333 385.167,304.667 385.5,305C 380.495,306.343 375.495,307.677 370.5,309C 370.833,309.333 371.167,309.667 371.5,310C 368.833,310.333 366.167,310.667 363.5,311C 364.833,311.333 366.167,311.667 367.5,312C 364.167,312.333 360.833,312.667 357.5,313C 357.833,313.333 358.167,313.667 358.5,314C 350.864,316.587 343.531,319.587 336.5,323C 337.167,323.333 337.833,323.667 338.5,324C 336.19,324.497 333.857,324.663 331.5,324.5C 331.5,325.5 331.5,326.5 331.5,327.5C 327.413,329.042 323.413,330.875 319.5,333C 319.833,333.333 320.167,333.667 320.5,334C 317.945,335.555 316.112,337.722 315,340.5C 314.667,340.167 314.333,339.833 314,339.5C 313.333,342.5 313.333,345.5 314,348.5C 314.333,348.167 314.667,347.833 315,347.5C 315.483,348.448 315.649,349.448 315.5,350.5C 318.748,352.413 322.415,353.413 326.5,353.5C 328.833,353.333 331.167,353.167 333.5,353C 332.833,352.667 332.167,352.333 331.5,352C 335.469,351.147 339.469,350.481 343.5,350C 342.5,349.667 341.5,349.333 340.5,349C 345.167,348.667 349.833,348.333 354.5,348C 352.167,347.667 349.833,347.333 347.5,347C 352.5,346.667 357.5,346.333 362.5,346C 361.5,345.667 360.5,345.333 359.5,345C 364.785,343.974 370.118,343.307 375.5,343C 374.833,342.667 374.167,342.333 373.5,342C 381.35,341.414 389.016,340.081 396.5,338C 395.5,337.667 394.5,337.333 393.5,337C 401.5,336.667 409.5,336.333 417.5,336C 412.833,335.667 408.167,335.333 403.5,335C 433.833,334.333 464.167,334.333 494.5,335C 490.833,335.333 487.167,335.667 483.5,336C 489.833,336.333 496.167,336.667 502.5,337C 501.5,337.333 500.5,337.667 499.5,338C 503.287,338.16 506.954,338.826 510.5,340C 509.833,340.333 509.167,340.667 508.5,341C 514.641,341.714 520.641,343.047 526.5,345C 526.167,345.333 525.833,345.667 525.5,346C 528.5,346.333 531.5,346.667 534.5,347C 533.5,347.333 532.5,347.667 531.5,348C 533.833,348.333 536.167,348.667 538.5,349C 538.167,349.333 537.833,349.667 537.5,350C 541.458,351.687 545.458,351.687 549.5,350C 549.167,349.667 548.833,349.333 548.5,349C 552.833,348.667 557.167,348.333 561.5,348C 558.5,347.667 555.5,347.333 552.5,347C 561.078,346.818 569.578,346.318 578,345.5C 578.333,345.833 578.667,346.167 579,346.5C 579.483,345.552 579.649,344.552 579.5,343.5C 582.982,341.944 586.315,340.278 589.5,338.5 Z M 326.5,280.5 C 326.56,279.957 326.893,279.624 327.5,279.5C 328.429,280.689 328.762,282.022 328.5,283.5C 322.49,283.775 322.157,282.942 327.5,281C 327.272,280.601 326.938,280.435 326.5,280.5 Z M 302.5,294.5 C 299.96,292.334 300.627,291.334 304.5,291.5C 304.657,292.873 304.49,294.207 304,295.5C 303.617,294.944 303.117,294.611 302.5,294.5 Z M 279.5,306.5 C 280.568,305.566 281.901,305.232 283.5,305.5C 283.649,306.552 283.483,307.552 283,308.5C 281.887,307.695 280.721,307.028 279.5,306.5 Z M 297.5,320.5 C 298.5,320.5 299.5,320.5 300.5,320.5C 300.543,324.893 300.043,325.226 299,321.5C 298.517,322.448 298.351,323.448 298.5,324.5C 297.448,324.649 296.448,324.483 295.5,324C 296.973,323.29 297.64,322.124 297.5,320.5 Z M 263.5,325.5 C 264.919,324.549 266.585,324.216 268.5,324.5C 268.719,325.675 268.386,326.675 267.5,327.5C 266.14,326.82 264.807,326.153 263.5,325.5 Z M 285.5,339.5 C 286.5,339.5 287.5,339.5 288.5,339.5C 288.5,340.833 288.5,342.167 288.5,343.5C 287.5,343.5 286.5,343.5 285.5,343.5C 285.5,342.167 285.5,340.833 285.5,339.5 Z M 260.5,345.5 C 260.56,344.957 260.893,344.624 261.5,344.5C 262.429,345.689 262.762,347.022 262.5,348.5C 260.473,348.662 258.473,348.495 256.5,348C 258.707,347.375 260.04,346.541 260.5,345.5 Z M 613.5,353.5 C 610.075,353.367 609.742,354.033 612.5,355.5C 611.5,355.5 610.5,355.5 609.5,355.5C 609.674,353.139 610.007,350.806 610.5,348.5C 616.208,348.492 616.541,348.992 611.5,350C 614.119,350.151 616.453,350.985 618.5,352.5C 616.955,353.452 615.288,353.785 613.5,353.5 Z M 435.5,353.5 C 436.451,354.919 436.784,356.585 436.5,358.5C 435.167,358.5 433.833,358.5 432.5,358.5C 432.5,357.5 432.5,356.5 432.5,355.5C 434.179,355.715 435.179,355.048 435.5,353.5 Z M 459.5,355.5 C 460.833,355.5 462.167,355.5 463.5,355.5C 463.5,356.5 463.5,357.5 463.5,358.5C 460.927,358.852 458.594,358.352 456.5,357C 457.737,356.768 458.737,356.268 459.5,355.5 Z M 406.5,357.5 C 407.919,356.549 409.585,356.216 411.5,356.5C 411.662,358.527 411.495,360.527 411,362.5C 410.506,360.866 410.34,359.199 410.5,357.5C 409.167,357.5 407.833,357.5 406.5,357.5 Z M 408.5,358.5 C 409.043,358.56 409.376,358.893 409.5,359.5C 408.277,360.614 406.944,360.781 405.5,360C 406.737,359.768 407.737,359.268 408.5,358.5 Z M 285.5,360.5 C 287.5,360.5 289.5,360.5 291.5,360.5C 291.785,362.288 291.452,363.955 290.5,365.5C 288.43,364.097 286.763,362.43 285.5,360.5 Z M 379.5,361.5 C 380.919,360.549 382.585,360.216 384.5,360.5C 384.66,362.199 384.494,363.866 384,365.5C 383.667,364.833 383.333,364.167 383,363.5C 382.275,365.158 381.108,365.658 379.5,365C 382.167,364.333 382.167,363.667 379.5,363C 382.097,362.221 382.097,361.721 379.5,361.5 Z M 481.5,361.5 C 483.265,360.539 485.265,360.205 487.5,360.5C 487.649,361.552 487.483,362.552 487,363.5C 485.275,362.536 483.441,361.869 481.5,361.5 Z M 262.5,365.5 C 263.5,365.5 264.5,365.5 265.5,365.5C 265.5,367.167 265.5,368.833 265.5,370.5C 263.473,370.662 261.473,370.495 259.5,370C 261.376,369.082 262.376,367.582 262.5,365.5 Z M 357.5,365.5 C 358.451,366.919 358.784,368.585 358.5,370.5C 356.143,370.663 353.81,370.497 351.5,370C 354.093,369.114 356.093,367.614 357.5,365.5 Z M 510.5,367.5 C 511.451,368.919 511.784,370.585 511.5,372.5C 511.204,370.972 509.204,369.972 505.5,369.5C 507.291,368.83 508.958,368.163 510.5,367.5 Z M 331.5,373.5 C 331.56,372.957 331.893,372.624 332.5,372.5C 333.647,374.765 333.814,377.098 333,379.5C 332.809,377.292 332.309,375.292 331.5,373.5 Z M 330.5,374.5 C 331.451,375.919 331.784,377.585 331.5,379.5C 330.736,377.959 328.402,376.792 324.5,376C 326.708,375.809 328.708,375.309 330.5,374.5 Z M 304.5,379.5 C 302.473,379.662 300.473,379.495 298.5,379C 301.07,378.277 303.403,377.11 305.5,375.5C 306.833,377.833 306.833,380.167 305.5,382.5C 305.483,381.606 305.149,380.606 304.5,379.5 Z M 430.5,376.5 C 430.56,375.957 430.893,375.624 431.5,375.5C 432.647,377.765 432.814,380.098 432,382.5C 431.667,381.167 431.333,379.833 431,378.5C 429.506,379.747 428.006,379.747 426.5,378.5C 428.653,377.992 429.987,377.326 430.5,376.5 Z M 452.5,378.5 C 453.919,377.549 455.585,377.216 457.5,377.5C 457.66,379.199 457.494,380.866 457,382.5C 455.791,380.816 454.291,379.483 452.5,378.5 Z M 404.5,379.5 C 404.833,379.5 405.167,379.5 405.5,379.5C 405.785,381.288 405.452,382.955 404.5,384.5C 403.304,384.154 403.304,383.654 404.5,383C 399.333,381.986 399.333,380.82 404.5,379.5 Z M 475.5,382.5 C 478.167,382.5 480.833,382.5 483.5,382.5C 483.66,384.199 483.494,385.866 483,387.5C 482.683,385.699 482.016,385.366 481,386.5C 480.309,383.734 478.809,383.067 476.5,384.5C 475.702,384.043 475.369,383.376 475.5,382.5 Z M 373.5,385.5 C 379.069,383.262 380.402,384.596 377.5,389.5C 376.304,389.154 376.304,388.654 377.5,388C 375.867,387.52 374.534,386.687 373.5,385.5 Z M 655.5,394.5 C 652.167,394.5 648.833,394.5 645.5,394.5C 645.335,397.518 645.502,400.518 646,403.5C 647.092,405.131 647.925,406.798 648.5,408.5C 652.704,411.2 657.037,413.7 661.5,416C 665.409,417.355 669.409,418.355 673.5,419C 671.833,419.333 670.167,419.667 668.5,420C 672.167,420.333 675.833,420.667 679.5,421C 679.167,421.333 678.833,421.667 678.5,422C 679.5,422.333 680.5,422.667 681.5,423C 691.018,426.011 701.351,428.678 712.5,431C 711.167,431.333 709.833,431.667 708.5,432C 711.833,432.333 715.167,432.667 718.5,433C 714.619,434.19 710.619,434.857 706.5,435C 705.33,436.755 703.663,437.755 701.5,438C 702.696,438.654 702.696,439.154 701.5,439.5C 700.901,436.026 699.568,433.026 697.5,430.5C 692.66,430.085 687.993,430.752 683.5,432.5C 682.353,432.182 681.519,431.516 681,430.5C 680.667,431.5 680.333,432.5 680,433.5C 680.457,426.958 677.457,424.291 671,425.5C 667.343,425.57 664.01,426.57 661,428.5C 660.581,424.148 659.914,423.815 659,427.5C 658.689,425.444 658.189,423.444 657.5,421.5C 654.833,421.167 652.167,420.833 649.5,420.5C 645.412,421.011 641.412,421.511 637.5,422C 638.5,421.667 639.5,421.333 640.5,421C 637.292,420.597 634.292,419.597 631.5,418C 629.415,415.392 627.082,413.059 624.5,411C 623.1,409.562 621.433,408.729 619.5,408.5C 619.714,406.856 619.38,405.356 618.5,404C 615.512,402.178 612.845,400.012 610.5,397.5C 608.577,396.692 606.577,396.192 604.5,396C 605.5,395.667 606.5,395.333 607.5,395C 593.925,394.824 580.425,394.324 567,393.5C 566.667,393.833 566.333,394.167 566,394.5C 565.517,393.552 565.351,392.552 565.5,391.5C 568.518,391.665 571.518,391.498 574.5,391C 573.584,390.722 572.918,390.222 572.5,389.5C 576.846,389.666 581.179,389.499 585.5,389C 585.167,388.667 584.833,388.333 584.5,388C 587.914,387.703 591.247,387.036 594.5,386C 593.833,385.667 593.167,385.333 592.5,385C 596.5,384.333 600.5,384.333 604.5,385C 601.5,385.333 598.5,385.667 595.5,386C 606.456,387.583 617.456,388.749 628.5,389.5C 633.5,389.333 638.5,389.167 643.5,389C 642.294,387.982 642.627,387.482 644.5,387.5C 646.373,387.482 646.706,387.982 645.5,389C 647.5,389.333 649.5,389.667 651.5,390C 651.167,390.333 650.833,390.667 650.5,391C 652.584,391.697 654.251,392.864 655.5,394.5 Z M 277.5,387.5 C 277.56,386.957 277.893,386.624 278.5,386.5C 279.641,388.421 279.808,390.421 279,392.5C 278.802,390.618 278.302,388.952 277.5,387.5 Z M 277.5,387.5 C 277.5,388.833 277.5,390.167 277.5,391.5C 270.063,388.814 270.063,387.481 277.5,387.5 Z M 351.5,391.5 C 352.451,392.919 352.784,394.585 352.5,396.5C 349.402,396.587 349.068,396.087 351.5,395C 344.873,393.511 344.873,392.344 351.5,391.5 Z M 325.5,397.5 C 325.56,396.957 325.893,396.624 326.5,396.5C 327.647,398.765 327.814,401.098 327,403.5C 326.809,401.292 326.309,399.292 325.5,397.5 Z M 324.5,398.5 C 325.404,399.209 325.737,400.209 325.5,401.5C 320.725,401.33 320.392,400.33 324.5,398.5 Z M 294.5,399.5 C 296.924,399.192 299.257,399.526 301.5,400.5C 301.081,401.672 300.415,402.672 299.5,403.5C 297.511,402.368 295.844,401.035 294.5,399.5 Z M 420.5,399.5 C 422.924,399.192 425.257,399.526 427.5,400.5C 427.081,401.672 426.415,402.672 425.5,403.5C 423.511,402.368 421.844,401.035 420.5,399.5 Z M 448.5,400.5 C 449.919,399.549 451.585,399.216 453.5,399.5C 453.66,401.199 453.494,402.866 453,404.5C 451.491,403.91 449.991,403.244 448.5,402.5C 450.925,401.351 450.925,400.684 448.5,400.5 Z M 394.5,402.5 C 396.265,401.539 398.265,401.205 400.5,401.5C 400.5,403.167 400.5,404.833 400.5,406.5C 399.448,406.649 398.448,406.483 397.5,406C 397.833,405.667 398.167,405.333 398.5,405C 397.264,403.915 395.931,403.082 394.5,402.5 Z M 367.5,408.5 C 369.5,408.5 371.5,408.5 373.5,408.5C 373.649,409.552 373.483,410.552 373,411.5C 370.674,411.12 368.841,410.12 367.5,408.5 Z M 342.5,418.5 C 342.5,417.833 342.5,417.167 342.5,416.5C 343.822,416.67 344.989,416.337 346,415.5C 346.483,416.448 346.649,417.448 346.5,418.5C 345.167,418.5 343.833,418.5 342.5,418.5 Z M 289.5,435.5 C 290.947,436.134 291.613,437.301 291.5,439C 291.375,444.079 291.208,449.245 291,454.5C 289.584,448.285 289.084,441.952 289.5,435.5 Z M 718.5,435.5 C 722.581,435.561 725.748,437.228 728,440.5C 728.333,440.167 728.667,439.833 729,439.5C 729.483,440.448 729.649,441.448 729.5,442.5C 727.801,442.66 726.134,442.494 724.5,442C 722.093,440.133 720.093,437.966 718.5,435.5 Z M 412.5,455.5 C 413.077,454.227 413.743,454.227 414.5,455.5C 414.03,456.463 413.363,456.463 412.5,455.5 Z M 409.5,456.5 C 411.337,456.639 411.67,457.306 410.5,458.5C 409.702,458.043 409.369,457.376 409.5,456.5 Z M 406.5,461.5 C 406.639,459.663 407.306,459.33 408.5,460.5C 408.043,461.298 407.376,461.631 406.5,461.5 Z M 403.5,463.5 C 405.225,463.843 405.725,464.843 405,466.5C 403.961,465.756 403.461,464.756 403.5,463.5 Z"/></g>
<g><path style="opacity:0.012" fill="#b1b1b1" d="M 511.5,215.5 C 513.966,214.366 516.633,214.199 519.5,215C 516.854,215.497 514.187,215.664 511.5,215.5 Z"/></g>
<g><path style="opacity:0.004" fill="#fefffe" d="M 462.5,227.5 C 464.288,226.378 466.288,226.211 468.5,227C 466.527,227.495 464.527,227.662 462.5,227.5 Z"/></g>
<g><path style="opacity:0.004" fill="#000000" d="M 300.5,262.5 C 301.833,263.167 301.833,263.167 300.5,262.5 Z"/></g>
<g><path style="opacity:0.004" fill="#000000" d="M 255.5,303.5 C 255.5,303.833 255.5,304.167 255.5,304.5C 254.833,304.5 254.5,304.833 254.5,305.5C 253.167,305.5 251.833,305.5 250.5,305.5C 250.389,304.883 250.056,304.383 249.5,304C 251.473,303.505 253.473,303.338 255.5,303.5 Z"/></g>
<g><path style="opacity:0.004" fill="#000000" d="M 751.5,327.5 C 752.833,327.5 753.5,328.167 753.5,329.5C 753.5,328.167 752.833,327.5 751.5,327.5 Z"/></g>
<g><path style="opacity:0.004" fill="#fffbf9" d="M 425.5,333.5 C 441.995,332.338 458.662,332.172 475.5,333C 458.837,333.5 442.17,333.667 425.5,333.5 Z"/></g>
<g><path style="opacity:0.004" fill="#fefffe" d="M 603.5,332.5 C 604.833,333.167 604.833,333.167 603.5,332.5 Z"/></g>
<g><path style="opacity:0.004" fill="#fefffe" d="M 605.5,333.5 C 607.628,332.371 609.961,332.204 612.5,333C 610.19,333.497 607.857,333.663 605.5,333.5 Z"/></g>
<g><path style="opacity:0.004" fill="#fefffe" d="M 758.5,335.5 C 759.622,337.288 759.789,339.288 759,341.5C 758.505,339.527 758.338,337.527 758.5,335.5 Z"/></g>
<g><path style="opacity:0.004" fill="#000000" d="M 591.5,336.5 C 591.5,337.833 590.833,338.5 589.5,338.5C 589.5,337.167 590.167,336.5 591.5,336.5 Z"/></g>
<g><path style="opacity:0.004" fill="#fefffe" d="M 690.5,337.5 C 689.448,337.649 688.448,337.483 687.5,337C 688.749,336.26 689.749,336.427 690.5,337.5 Z"/></g>
<g><path style="opacity:0.008" fill="#515151" d="M 285.5,339.5 C 285.5,340.833 285.5,342.167 285.5,343.5C 284.414,343.38 283.747,342.713 283.5,341.5C 283.747,340.287 284.414,339.62 285.5,339.5 Z"/></g>
<g><path style="opacity:0.004" fill="#000000" d="M 613.5,353.5 C 613.672,354.492 613.338,355.158 612.5,355.5C 609.742,354.033 610.075,353.367 613.5,353.5 Z"/></g>
<g><path style="opacity:0.005" fill="#000000" d="M 405.5,377.5 C 405.5,378.167 405.833,378.5 406.5,378.5C 406.5,379.167 406.167,379.5 405.5,379.5C 405.167,379.5 404.833,379.5 404.5,379.5C 402.969,378.075 403.302,377.409 405.5,377.5 Z"/></g>
<g><path style="opacity:0.004" fill="#000000" d="M 566.5,389.5 C 567.5,390.833 568.5,390.833 569.5,389.5C 570.5,389.5 571.5,389.5 572.5,389.5C 572.918,390.222 573.584,390.722 574.5,391C 571.518,391.498 568.518,391.665 565.5,391.5C 563.969,390.075 564.302,389.409 566.5,389.5 Z"/></g>
<g><path style="opacity:0.004" fill="#000000" d="M 664.5,391.5 C 664.573,393.027 663.906,394.027 662.5,394.5C 662.427,392.973 663.094,391.973 664.5,391.5 Z"/></g>
<g><path style="opacity:0.004" fill="#000000" d="M 714.5,411.5 C 715.833,412.167 715.833,412.167 714.5,411.5 Z"/></g>
<g><path style="opacity:0.005" fill="#000000" d="M 342.5,416.5 C 342.5,417.167 342.5,417.833 342.5,418.5C 339.833,417.833 339.833,417.167 342.5,416.5 Z"/></g>
<g><path style="opacity:0.004" fill="#000000" d="M 656.5,461.5 C 657.601,460.402 658.934,460.235 660.5,461C 659.207,461.49 657.873,461.657 656.5,461.5 Z"/></g>
<g><path style="opacity:0.004" fill="#000000" d="M 729.5,460.5 C 730.833,461.167 730.833,461.167 729.5,460.5 Z"/></g>
<g><path style="opacity:0.004" fill="#fefffe" d="M 564.5,465.5 C 565.833,466.167 565.833,466.167 564.5,465.5 Z"/></g>
<g><path style="opacity:0.004" fill="#000000" d="M 298.5,468.5 C 300.5,468.5 301.5,469.5 301.5,471.5C 299.81,471.144 298.81,470.144 298.5,468.5 Z"/></g>
<g><path style="opacity:0.004" fill="#e8e8e8" d="M 397.5,477.5 C 398.645,481.311 398.812,485.311 398,489.5C 397.501,485.514 397.334,481.514 397.5,477.5 Z"/></g>
<g><path style="opacity:0.004" fill="#eaeaea" d="M 232.5,480.5 C 233.647,484.646 233.814,488.98 233,493.5C 232.501,489.179 232.334,484.846 232.5,480.5 Z"/></g>
<g><path style="opacity:0.004" fill="#dbdbdb" d="M 308.5,482.5 C 309.629,484.628 309.796,486.961 309,489.5C 308.503,487.19 308.337,484.857 308.5,482.5 Z"/></g>
<g><path style="opacity:0.004" fill="#fefffe" d="M 497.5,494.5 C 498.638,497.304 498.805,500.304 498,503.5C 497.502,500.518 497.335,497.518 497.5,494.5 Z"/></g>
<g><path style="opacity:0.004" fill="#000000" d="M 297.5,505.5 C 298.833,506.167 298.833,506.167 297.5,505.5 Z"/></g>
<g><path style="opacity:0.004" fill="#f4f4f4" d="M 274.5,516.5 C 276.628,515.371 278.961,515.204 281.5,516C 279.19,516.497 276.857,516.663 274.5,516.5 Z"/></g>
<g><path style="opacity:0.004" fill="#fefffe" d="M 448.5,528.5 C 450.288,527.378 452.288,527.211 454.5,528C 452.527,528.495 450.527,528.662 448.5,528.5 Z"/></g>
</svg>
